<svg viewBox="0 0 100 100" xmlns="http://www.w3.org/2000/svg">
  <defs>
    <linearGradient id="bg" x1="0%" y1="0%" x2="100%" y2="100%">
      <stop offset="0%" stop-color="#5865F2"/>
      <stop offset="100%" stop-color="#3b43a8"/>
    </linearGradient>
  </defs>

  <!-- rounded square base -->
  <rect x="5" y="5" width="90" height="90" rx="20" fill="url(#bg)"/>

  <!-- stylized headphones/controller shape - vesktop's vibe -->
  <path d="M25 45 Q25 30 40 28 L60 28 Q75 30 75 45 L75 58 Q75 68 65 68 L62 68 L62 55 Q62 50 57 50 L43 50 Q38 50 38 55 L38 68 L35 68 Q25 68 25 58 Z"
        fill="#ffffff" opacity="0.95"/>

  <!-- eyes -->
  <ellipse cx="38" cy="42" rx="6" ry="7" fill="#5865F2"/>
  <ellipse cx="62" cy="42" rx="6" ry="7" fill="#5865F2"/>

  <!-- smile -->
  <path d="M40 52 Q50 60 60 52" stroke="#5865F2" stroke-width="3" fill="none" stroke-linecap="round"/>
</svg>
